<svg xmlns="http://www.w3.org/2000/svg" viewBox="0 0 400 300" width="406" height="306" class="illustration styles_illustrationTablet__1DWOa"><g id="_513_smart_phone_data_outline" data-name="#513_smart_phone_data_outline"><rect x="138.34" y="63.84" width="123.32" height="172.33" rx="9.97" fill="#68e1fd"></rect><path d="M251.69,237.16H148.31a11,11,0,0,1-11-11V73.81a11,11,0,0,1,11-11H251.69a11,11,0,0,1,11,11V226.19A11,11,0,0,1,251.69,237.16ZM148.31,64.84a9,9,0,0,0-9,9V226.19a9,9,0,0,0,9,9H251.69a9,9,0,0,0,9-9V73.81a9,9,0,0,0-9-9Z" fill="#093f68"></path><rect x="138.34" y="79.68" width="123.32" height="128.95" fill="#fff"></rect><path d="M261.66,209.64H138.34a1,1,0,0,1-1-1v-129a1,1,0,0,1,1-1H261.66a1,1,0,0,1,1,1v129A1,1,0,0,1,261.66,209.64Zm-122.32-2H260.66v-127H139.34Z" fill="#093f68"></path><polygon points="190.63 132.93 190.63 126.36 165.78 126.36 165.78 132.93 165.78 143.16 165.78 183.99 243.9 183.99 243.9 132.93 190.63 132.93" fill="#68e1fd"></polygon><path d="M243.9,185H165.78a1,1,0,0,1-1-1V126.36a1,1,0,0,1,1-1h24.85a1,1,0,0,1,1,1v5.57H243.9a1,1,0,0,1,1,1V184A1,1,0,0,1,243.9,185Zm-77.12-2H242.9V133.93H190.63a1,1,0,0,1-1-1v-5.57H166.78Z" fill="#093f68"></path><rect x="179.89" y="104.87" width="58.19" height="72.41" fill="#f56132"></rect><path d="M238.08,178.27H179.89a1,1,0,0,1-1-1v-72.4a1,1,0,0,1,1-1h58.19a1,1,0,0,1,1,1v72.4A1,1,0,0,1,238.08,178.27Zm-57.19-2h56.19v-70.4H180.89Z" fill="#093f68"></path><rect x="174.17" y="109.37" width="58.19" height="64.2" fill="#ffbc0e"></rect><path d="M232.36,174.57H174.17a1,1,0,0,1-1-1v-64.2a1,1,0,0,1,1-1h58.19a1,1,0,0,1,1,1v64.2A1,1,0,0,1,232.36,174.57Zm-57.19-2h56.19v-62.2H175.17Z" fill="#093f68"></path><polygon points="243.9 183.99 165.78 183.99 151.18 140.34 229.3 140.34 243.9 183.99" fill="#68e1fd"></polygon><path d="M243.9,185H165.78a1,1,0,0,1-.95-.69l-14.6-43.64a1,1,0,0,1,.13-.9,1,1,0,0,1,.82-.42H229.3a1,1,0,0,1,.95.69l14.6,43.64a1,1,0,0,1-.95,1.32Zm-77.4-2h76l-13.93-41.65h-76Z" fill="#093f68"></path><path d="M184.21,150H167.32a1,1,0,0,1,0-2h16.89a1,1,0,1,1,0,2Z" fill="#093f68"></path><path d="M223,119.85H189.84a1,1,0,0,1,0-2H223a1,1,0,0,1,0,2Z" fill="#093f68"></path><path d="M223,127.36H183.56a1,1,0,0,1,0-2H223a1,1,0,0,1,0,2Z" fill="#093f68"></path><path d="M223,134.87H183.56a1,1,0,0,1,0-2H223a1,1,0,1,1,0,2Z" fill="#093f68"></path><circle cx="237.03" cy="173.57" r="13.8" fill="#fff"></circle><path d="M237,188.36a14.8,14.8,0,1,1,14.79-14.79A14.81,14.81,0,0,1,237,188.36Zm0-27.59a12.8,12.8,0,1,0,12.79,12.8A12.81,12.81,0,0,0,237,160.77Z" fill="#093f68"></path><path d="M232.36,180.53a1,1,0,0,1-1-1V169.11a1,1,0,0,1,2,0v10.42A1,1,0,0,1,232.36,180.53Z" fill="#093f68"></path><path d="M235.55,172.17a1,1,0,0,1-.75-.33l-2.47-2.76-2.68,2.79a1,1,0,0,1-1.41,0,1,1,0,0,1,0-1.42l3.43-3.56a1,1,0,0,1,.74-.31,1,1,0,0,1,.72.33l3.19,3.57a1,1,0,0,1-.74,1.66Z" fill="#093f68"></path><path d="M241.93,179a1,1,0,0,1-1-1V167.61a1,1,0,0,1,2,0V178A1,1,0,0,1,241.93,179Z" fill="#093f68"></path><path d="M241.93,180.53a1,1,0,0,1-.72-.31l-3.42-3.57a1,1,0,0,1,0-1.41,1,1,0,0,1,1.42,0l2.68,2.79,2.47-2.77a1,1,0,0,1,1.49,1.34l-3.19,3.56a1,1,0,0,1-.73.34Z" fill="#093f68"></path><path d="M194,71.86a1.05,1.05,0,0,1-.71-.29.93.93,0,0,1-.21-.33.94.94,0,0,1,0-.76.9.9,0,0,1,.54-.54,1,1,0,0,1,.58-.06.64.64,0,0,1,.18.06.56.56,0,0,1,.17.09l.16.12a1,1,0,0,1,.21.33,1,1,0,0,1,.08.38,1.05,1.05,0,0,1-.29.71,1,1,0,0,1-.16.12.56.56,0,0,1-.17.09.64.64,0,0,1-.18.06Z" fill="#093f68"></path><path d="M206,71.86h-7.74a1,1,0,0,1,0-2H206a1,1,0,0,1,0,2Z" fill="#093f68"></path><circle cx="200" cy="221.97" r="6.2" fill="#093f68"></circle></g></svg>