<svg xmlns="http://www.w3.org/2000/svg" version="1.1" xmlns:xlink="http://www.w3.org/1999/xlink" xmlns:svgjs="http://svgjs.com/svgjs" width="1440" height="560" preserveAspectRatio="none" viewBox="0 0 1440 560"><g mask="url(&quot;#SvgjsMask1006&quot;)" fill="none"><path d="M1130.7 231.25L1171.37 231.25L1171.37 271.92L1130.7 271.92z" fill="#d3b714"></path><path d="M592.3 293.95L607.18 293.95L607.18 305.09L592.3 305.09z" stroke="#e73635"></path><path d="M244.41 503.04a17.04 17.04 0 1 0-23.95 24.25z" fill="#e73635"></path><path d="M659.36 514.15 a49.12 49.12 0 1 0 98.24 0 a49.12 49.12 0 1 0 -98.24 0z" stroke="#e73635"></path><path d="M901.04 263.12L948.9 263.12L948.9 307.87L901.04 307.87z" stroke="#037b0b"></path><path d="M1009.25 417.44a33.6 33.6 0 1 0 65.74 13.92z" stroke="#037b0b"></path><path d="M1067.71 64.43L1119.28 64.43L1119.28 110L1067.71 110z" stroke="#e73635"></path><path d="M1114.29 363.83L1114.83 363.83L1114.83 364.37L1114.29 364.37z" fill="#d3b714"></path><path d="M1254.65 517.25L1284.68 517.25L1284.68 547.28L1254.65 547.28z" fill="#e73635"></path><path d="M-41.98 278.93 a43.02 43.02 0 1 0 86.04 0 a43.02 43.02 0 1 0 -86.04 0z" stroke="#037b0b"></path><path d="M684.13 395.6 a18.04 18.04 0 1 0 36.08 0 a18.04 18.04 0 1 0 -36.08 0z" fill="#e73635"></path><path d="M1101.69 90.3a51.05 51.05 0 1 0-53.73-86.82z" stroke="#e73635"></path><path d="M215.14 10.22 a2.98 2.98 0 1 0 5.96 0 a2.98 2.98 0 1 0 -5.96 0z" stroke="#d3b714"></path><path d="M1155.5 177.27L1194.1 177.27L1194.1 230.21L1155.5 230.21z" stroke="#037b0b"></path><path d="M1103.06 92.65 a7.95 7.95 0 1 0 15.9 0 a7.95 7.95 0 1 0 -15.9 0z" fill="#037b0b"></path><path d="M1358.15 416.39L1407.5 416.39L1407.5 465.74L1358.15 465.74z" stroke="#037b0b"></path><path d="M366.63 548.71a20.33 20.33 0 1 0-36.38 18.16z" fill="#037b0b"></path><path d="M803.74 319.18L856.26 319.18L856.26 371.7L803.74 371.7z" stroke="#d3b714"></path><path d="M925.16 113.77L949.98 113.77L949.98 136.79L925.16 136.79z" fill="#d3b714"></path><path d="M300.33 9.69L326.93 9.69L326.93 22.09L300.33 22.09z" stroke="#d3b714"></path><path d="M1147.58 381.5 a53.28 53.28 0 1 0 106.56 0 a53.28 53.28 0 1 0 -106.56 0z" stroke="#037b0b"></path><path d="M1170.27 558.76 a36.81 36.81 0 1 0 73.62 0 a36.81 36.81 0 1 0 -73.62 0z" stroke="#d3b714"></path><path d="M1162.16 145.8 a24.44 24.44 0 1 0 48.88 0 a24.44 24.44 0 1 0 -48.88 0z" stroke="#037b0b"></path><path d="M1379.62 232.89 a5.61 5.61 0 1 0 11.22 0 a5.61 5.61 0 1 0 -11.22 0z" fill="#e73635"></path><path d="M1163.88 49.83 a35.46 35.46 0 1 0 70.92 0 a35.46 35.46 0 1 0 -70.92 0z" stroke="#e73635"></path><path d="M834.92 276.69L843.09 276.69L843.09 286.58L834.92 286.58z" stroke="#e73635"></path><path d="M1355.15 377.21 a45 45 0 1 0 90 0 a45 45 0 1 0 -90 0z" stroke="#d3b714"></path><path d="M791.88 402.14 a34.56 34.56 0 1 0 69.12 0 a34.56 34.56 0 1 0 -69.12 0z" fill="#d3b714"></path><path d="M287.65 463.28 a0.43 0.43 0 1 0 0.86 0 a0.43 0.43 0 1 0 -0.86 0z" stroke="#e73635"></path><path d="M1270.02 343.64L1282.59 343.64L1282.59 356.21L1270.02 356.21z" stroke="#e73635"></path><path d="M438.06 422.98L454.43 422.98L454.43 431.88L438.06 431.88z" fill="#e73635"></path><path d="M470.11 126.86a45.97 45.97 0 1 0 64.61 65.41z" fill="#e73635"></path><path d="M150.44 521.65a48.15 48.15 0 1 0-96.29-1.62z" stroke="#e73635"></path></g><defs><mask id="SvgjsMask1006"><rect width="1440" height="560" fill="#ffffff"></rect></mask></defs></svg>