<svg xmlns="http://www.w3.org/2000/svg" version="1.1" xmlns:xlink="http://www.w3.org/1999/xlink" xmlns:svgjs="http://svgjs.com/svgjs" width="1440" height="560" preserveAspectRatio="none" viewBox="0 0 1440 560"><g mask="url(&quot;#SvgjsMask1033&quot;)" fill="none"><path d="M -180.11724712161208,210 C -159.52,257.4 -118.32,473.6 -77.11724712161207,447 C -35.92,420.4 -15.32,103 25.882752878387933,77 C 67.08,51 87.68,279.4 128.88275287838792,317 C 170.08,354.6 190.68,247.6 231.88275287838792,265 C 273.08,282.4 293.68,410.2 334.8827528783879,404 C 376.08,397.8 396.68,229.4 437.8827528783879,234 C 479.08,238.6 499.68,423 540.8827528783879,427 C 582.08,431 602.68,248.4 643.8827528783879,254 C 685.08,259.6 705.68,464 746.8827528783879,455 C 788.08,446 808.68,206.6 849.8827528783879,209 C 891.08,211.4 911.68,459.4 952.8827528783879,467 C 994.08,474.6 1014.68,269.8 1055.882752878388,247 C 1097.08,224.2 1117.68,359.6 1158.882752878388,353 C 1200.08,346.4 1220.68,212.4 1261.882752878388,214 C 1303.08,215.6 1329.26,361.6 1364.882752878388,361 C 1400.51,360.4 1424.98,241 1440,211" stroke="rgba(30, 41, 59, 1)" stroke-width="2"></path><path d="M -192.3258326881175,371 C -171.73,341 -130.53,227.4 -89.32583268811749,221 C -48.13,214.6 -27.53,366 13.674167311882513,339 C 54.87,312 75.47,80.6 116.67416731188251,86 C 157.87,91.4 178.47,350.8 219.6741673118825,366 C 260.87,381.2 281.47,145.6 322.6741673118825,162 C 363.87,178.4 384.47,448.2 425.6741673118825,448 C 466.87,447.8 487.47,183.8 528.6741673118825,161 C 569.87,138.2 590.47,317 631.6741673118825,334 C 672.87,351 693.47,229.6 734.6741673118825,246 C 775.87,262.4 796.47,412 837.6741673118825,416 C 878.87,420 899.47,269.6 940.6741673118825,266 C 981.87,262.4 1002.47,434.8 1043.6741673118825,398 C 1084.87,361.2 1105.47,67 1146.6741673118825,82 C 1187.87,97 1208.47,439.4 1249.6741673118825,473 C 1290.87,506.6 1314.61,272.2 1352.6741673118825,250 C 1390.74,227.8 1422.53,339.6 1440,362" stroke="rgba(30, 41, 59, 1)" stroke-width="2"></path></g><defs><mask id="SvgjsMask1033"><rect width="1440" height="560" fill="#ffffff"></rect></mask></defs></svg>